<svg width="17" height="16" viewBox="0 0 17 16" fill="none" xmlns="http://www.w3.org/2000/svg">
<path d="M15.7891 7.99952C15.7891 11.9005 12.6271 15.0615 8.72606 15.0615C4.82606 15.0615 1.66406 11.9005 1.66406 7.99952C1.66406 4.09852 4.82606 0.936523 8.72606 0.936523C12.6271 0.936523 15.7891 4.09852 15.7891 7.99952ZM13.0961 6.62952L10.0961 3.62952C9.39506 2.92452 8.27306 2.86552 7.50106 3.49352C6.72906 4.12052 6.55806 5.23152 7.10506 6.06152H5.72606C4.65606 6.06152 3.78906 6.92952 3.78906 7.99952C3.78906 9.06952 4.65606 9.93652 5.72606 9.93652H7.10506C6.55806 10.7675 6.72906 11.8785 7.50106 12.5055C8.27306 13.1335 9.39506 13.0745 10.0961 12.3695L13.0961 9.36952C13.8531 8.61252 13.8531 7.38652 13.0961 6.62952Z" fill="black" stroke="black" stroke-width="1.88" stroke-miterlimit="10"/>
</svg>
