<svg width="100%" height="100%" viewBox="0 0 22 23" fill="none" xmlns="http://www.w3.org/2000/svg">
<path d="M1.83398 6.91675L9.31849 12.1559C9.92457 12.5802 10.2276 12.7923 10.5572 12.8744C10.8484 12.947 11.1529 12.947 11.4441 12.8744C11.7737 12.7923 12.0767 12.5802 12.6828 12.1559L20.1673 6.91675M6.23398 18.8334H15.7673C17.3075 18.8334 18.0775 18.8334 18.6658 18.5337C19.1832 18.27 19.6039 17.8493 19.8676 17.3319C20.1673 16.7436 20.1673 15.9736 20.1673 14.4334V8.56675C20.1673 7.0266 20.1673 6.25653 19.8676 5.66827C19.6039 5.15083 19.1832 4.73013 18.6658 4.46648C18.0775 4.16675 17.3075 4.16675 15.7673 4.16675H6.23398C4.69384 4.16675 3.92377 4.16675 3.33551 4.46648C2.81806 4.73013 2.39737 5.15083 2.13372 5.66827C1.83398 6.25653 1.83398 7.0266 1.83398 8.56675V14.4334C1.83398 15.9736 1.83398 16.7436 2.13372 17.3319C2.39737 17.8493 2.81806 18.27 3.33551 18.5337C3.92377 18.8334 4.69384 18.8334 6.23398 18.8334Z" stroke="white" stroke-width="2" stroke-linecap="round" stroke-linejoin="round"/>
</svg>
