<svg width="100%" height="100%" viewBox="0 0 21 21" fill="none" xmlns="http://www.w3.org/2000/svg">
<path d="M17.8594 10.5991C17.8594 14.5001 14.6974 17.6611 10.7964 17.6611C6.89637 17.6611 3.73438 14.5001 3.73438 10.5991C3.73438 6.69813 6.89637 3.53613 10.7964 3.53613C14.6974 3.53613 17.8594 6.69813 17.8594 10.5991ZM15.1664 9.22913L12.1664 6.22913C11.4654 5.52413 10.3434 5.46513 9.57138 6.09313C8.79938 6.72013 8.62837 7.83113 9.17537 8.66113H7.79637C6.72637 8.66113 5.85938 9.52913 5.85938 10.5991C5.85938 11.6691 6.72637 12.5361 7.79637 12.5361H9.17537C8.62837 13.3671 8.79938 14.4781 9.57138 15.1051C10.3434 15.7331 11.4654 15.6741 12.1664 14.9691L15.1664 11.9691C15.9234 11.2121 15.9234 9.98613 15.1664 9.22913Z" fill="currentColor" stroke="currentColor" stroke-width="1.88" stroke-miterlimit="10"/>
</svg>
